<svg xmlns="http://www.w3.org/2000/svg" version="1.1" xmlns:xlink="http://www.w3.org/1999/xlink" xmlns:svgjs="http://svgjs.dev/svgjs" width="800" height="811.51"><svg id="SvgjsSvg1054" data-name="Layer 1" xmlns="http://www.w3.org/2000/svg" viewBox="0 0 800 811.51">
  <path d="M797.22,625.76l-89.78-442.89h-124.57C582.87,82.04,500.84,0,400,0s-182.88,82.04-182.88,182.87h-124.57L2.78,625.76s-40.4,193.02,187.03,185.54h420.38c227.43,7.48,187.03-185.54,187.03-185.54ZM400,62.76c66.23,0,120.11,53.88,120.11,120.11h-240.23c0-66.23,53.88-120.11,120.12-120.11ZM587.47,571.87l-20.49-7.46c-17.84,48.2-53.27,86.68-99.88,108.41-26.07,12.15-53.9,18.27-81.83,18.27-22.37,0-44.79-3.92-66.43-11.8-48.67-17.71-87.53-53.32-109.41-100.26-21.89-46.94-24.19-99.59-6.47-148.26,17.71-48.67,53.32-87.53,100.26-109.41,46.94-21.89,99.59-24.19,148.26-6.47l-23.15,63.61c-31.68-11.53-65.95-10.03-96.5,4.21-30.55,14.25-53.73,39.54-65.26,71.22-11.53,31.68-10.03,65.95,4.21,96.5,14.25,30.55,39.54,53.73,71.22,65.26,65.06,23.68,137.21-9.7,161.39-74.43l-20.79-7.57c-12.55-4.57-14.22-21.62-2.8-28.54l76.2-46.17c8.69-5.27,20.02-1.14,23.3,8.48l28.69,84.35c4.3,12.64-7.95,24.63-20.49,20.06Z"></path>
</svg><style>@media (prefers-color-scheme: light) { :root { filter: none; } }
@media (prefers-color-scheme: dark) { :root { filter: invert(100%); } }
</style></svg>