<?xml version="1.0" encoding="UTF-8"?><svg id="Combination" xmlns="http://www.w3.org/2000/svg" viewBox="0 0 2528.12 353.86"><path d="M730.48,237.24c-51.82,59.82-174.38,57.64-205.27-22.43-26.04-69.91,12.28-157.02,81.06-185.75,45.62-20.64,115.43-15.85,147.02,24.88l-43.16,38.55c-15.66-25.17-55.52-29.07-80.88-15.24-31.5,15.98-49.77,51.49-49.65,86.39-.88,66.51,79.59,81.61,118.25,35.05l32.63,38.55Z" fill="#0084ff"/><path d="M831.91,277.14c-69.56.73-105.76-54.17-81.4-118.25,9.87-26.37,28.84-46.4,54.74-57.9,41.94-18.22,106.52-9.48,127.55,35.97,26.91,67.58-27.24,143.05-100.88,140.18ZM884.2,175.03c-2.53-58.78-87.26-44.43-85.97,19.3,2.11,58.44,87.51,43.88,85.97-19.3Z" fill="#0084ff"/><path d="M979.53,116.57c1.05-7.24,1.81-13.75,2.28-19.54h53.69c-.47,5.86-2.01,19.97-2.81,26.05h.7c21.5-38.57,87.75-43.8,103.51,1.09,17.67-27.13,53.61-39.81,83.86-27.13,21.23,8.51,32.24,30.14,31.93,52.1,1.46,8.49-19.25,116.92-20.7,128.08h-56.14c1.38-10.53,18.69-104.87,18.25-112.88-.17-14.3-6.83-24.96-22.81-24.6-21.15.1-32.38,22.1-35.44,40.52,0,0-16.49,96.96-16.49,96.96h-56.49c.61-5.04,19.64-111.34,18.6-113.25-.08-13.5-6.28-24.5-21.05-24.24-21.05-.22-31.64,20.86-35.09,39.8,0,0-16.84,97.69-16.84,97.69h-56.14c1.37-8.55,26.94-158.24,27.19-160.64Z" fill="#0084ff"/><path d="M1297.71,116.57c1.05-7.24,1.81-13.75,2.28-19.54h53.69c-.47,5.86-2.01,19.97-2.81,26.05h.7c21.5-38.57,87.75-43.8,103.51,1.09,17.67-27.13,53.61-39.81,83.86-27.13,21.23,8.51,32.24,30.14,31.93,52.1,1.46,8.49-19.25,116.92-20.7,128.08h-56.14c1.38-10.53,18.69-104.87,18.25-112.88-.17-14.3-6.83-24.96-22.81-24.6-21.15.1-32.38,22.1-35.44,40.52,0,0-16.49,96.96-16.49,96.96h-56.49c.61-5.04,19.64-111.34,18.6-113.25-.08-13.5-6.28-24.5-21.05-24.24-21.05-.22-31.64,20.86-35.09,39.8,0,0-16.84,97.69-16.84,97.69h-56.14c1.37-8.55,26.94-158.24,27.19-160.64Z" fill="#0084ff"/><path d="M1643.86,199.71c-3.22,21.16,19.34,34.89,38.25,34.34,17.07.14,30.35-6.54,41.76-18.22l35.44,27.68c-48.83,55.97-170.13,43.06-168.07-44.85-1.36-58.07,46.51-108.25,105.27-106.51,63.94-.32,88.41,50.04,72.63,107.56h-125.27ZM1723.51,165.37c5.41-50.48-67.71-40-75.79,0h75.79Z" fill="#0084ff"/><path d="M1868.14,123.4c12.52-21.49,34.93-36.39,60.35-29.68l-9.12,51.39c-23.11-6.79-48.89,4.41-56.67,26.78-3.49,4.45-17.75,97.46-19.47,105.32h-56.14c4.41-28.48,28.19-153.94,30.18-180.23h53.33c-.27,7.97-2.16,18.44-3.16,26.42h.7Z" fill="#0084ff"/><path d="M2058.46,152.87c-29.85-36.32-83.88-2.65-82.11,39.81-1.3,41.1,51.4,48.36,74.39,21.62l26.67,35.96c-49.93,48.54-156.69,31.31-155.44-50-1.04-58.34,47.95-109.72,107.37-108.12,24.2.1,50.54,7.28,64.56,27.03l-35.44,33.7Z" fill="#0084ff"/><polygon points="2090.67 277.21 2121.2 92.1 2177.69 92.1 2146.46 277.21 2090.67 277.21" fill="#0084ff"/><path d="M2189.62,45.2c.94,40.05-61.06,47.24-63.16,5.61-1.31-39.84,61.29-47.26,63.16-5.61Z" fill="#0084ff"/><path d="M2331.94,48.71c-35.94-12.13-42.16,15.32-47.72,43.39h39.3l-7.37,47.49h-38.6l-23.51,137.55h-55.09l23.51-137.55h-31.93l7.37-47.49h30.88c4.15-13.69,6.38-28.69,11.58-41.99,13.59-41.79,60.7-58.26,101.76-46.32l-10.18,44.91Z" fill="#0084ff"/><path d="M2413.73,295.13c-24.71,47.89-53.86,68.22-108.07,54.57l8.42-46.77c32.85,12.31,43.26-10.11,57.2-35.08l-40.35-175.74h61.41l17.54,115.51h.7l57.9-115.51h59.65l-114.39,203.03Z" fill="#0084ff"/><path d="M405.68,121.83h-105.34c-3.93,0-7.44,2.44-8.82,6.11l-7.51,20.06-5.04,13.48c-2.3,6.15,2.25,12.7,8.82,12.7h140l19.78-52.35h-41.9Z" fill="#0084ff"/><path d="M183.27,17.13h-66.32c-32.31,0-61.25,19.99-72.67,50.2L5.23,170.68c-19.76,52.3,18.92,108.21,74.87,108.21h308.13l19.78-52.35h-181.35c-13.54,0-22.92-13.5-18.17-26.18h0s9.79-26.18,9.79-26.18l9.8-26.18,9.79-26.18,9.79-26.18,2.93-7.84c4.13-11.03,14.67-18.34,26.46-18.34h190.3l19.78-52.35H183.27Z" fill="#0084ff"/></svg>