<?xml version="1.0" encoding="UTF-8"?>
<svg id="Layer_1" data-name="Layer 1" xmlns="http://www.w3.org/2000/svg" width="2500.21" height="353.69" viewBox="0 0 2500.21 353.69">
  <defs>
    <style>
      .cls-1 {
        fill: #0084ff;
      }
    </style>
  </defs>
  <g>
    <path class="cls-1" d="M408.68,122.84h-106.41c-3.96,0-7.5,2.46-8.88,6.16l-7.59,20.3-5.11,13.66c-2.32,6.2,2.26,12.8,8.88,12.8h141.44l19.98-52.92h-42.31Z"/>
    <path class="cls-1" d="M184.13,16.98h-66.34c-32.54,0-61.69,20.15-73.18,50.59L5.27,171.78c-19.9,52.71,19.05,109.06,75.4,109.06h310.29l19.98-52.92h-182.54c-13.61,0-23.04-13.59-18.27-26.34l9.85-26.34,9.85-26.34,9.85-26.34,9.85-26.34,2.94-7.85c4.16-11.12,14.78-18.48,26.64-18.48h191.96l19.98-52.92h-123.58"/>
  </g>
  <g>
    <path class="cls-1" d="M676.98,220.35c-9.9,4.72-20.4,7.07-31.48,7.07-9.9,0-18.69-1.65-26.35-4.95-7.67-3.3-14.09-7.78-19.28-13.44-5.19-5.66-9.14-12.32-11.85-19.98-2.71-7.66-4.07-15.74-4.07-24.23,0-12.26,2.06-24.11,6.19-35.55,4.12-11.43,9.9-21.58,17.33-30.42s16.27-15.92,26.53-21.22c10.26-5.31,21.63-7.96,34.13-7.96,11.79,0,21.63,2.36,29.53,7.07,7.9,4.72,13.85,10.14,17.86,16.27l43.5-38.91c-8.02-10.84-19.93-19.75-35.72-26.7-15.8-6.95-33.6-10.43-53.41-10.43-21.22,0-40.91,4.01-59.07,12.03-18.16,8.02-33.9,19.04-47.22,33.07-13.32,14.03-23.76,30.48-31.3,49.34-7.55,18.87-11.32,39.03-11.32,60.48,0,16.27,2.71,31.12,8.13,44.57,5.42,13.44,13.09,24.94,22.99,34.48s21.93,16.92,36.08,22.11c14.15,5.18,30.06,7.78,47.75,7.78,12.03,0,23.05-1.12,33.07-3.36,10.02-2.24,19.22-5.31,27.59-9.2,8.37-3.89,15.79-8.37,22.28-13.44,6.48-5.07,12.2-10.31,17.15-15.74l-32.89-38.91c-7.55,8.73-16.27,15.45-26.17,20.16Z"/>
    <path class="cls-1" d="M917.95,113.36c-8.02-6.72-17.57-11.85-28.65-15.39-11.09-3.54-23.11-5.31-36.08-5.31-16.75,0-31.72,2.95-44.92,8.84-13.21,5.9-24.47,13.79-33.78,23.7-9.32,9.9-16.45,21.46-21.4,34.66-4.95,13.21-7.43,27.12-7.43,41.74,0,12.03,2.3,22.81,6.9,32.36,4.6,9.55,10.84,17.68,18.75,24.4,7.9,6.72,17.33,11.85,28.3,15.39,10.96,3.54,22.81,5.31,35.55,5.31,16.98,0,32.13-2.89,45.45-8.67,13.32-5.78,24.7-13.62,34.13-23.52,9.43-9.9,16.62-21.45,21.58-34.66,4.95-13.2,7.43-27.23,7.43-42.09,0-12.03-2.3-22.81-6.9-32.36-4.6-9.55-10.91-17.68-18.92-24.4ZM884.35,197.72c-2.36,6.84-5.72,12.85-10.08,18.04-4.37,5.19-9.61,9.26-15.74,12.2-6.13,2.95-12.97,4.42-20.51,4.42-11.79,0-20.87-3.48-27.23-10.43-6.37-6.95-9.55-15.74-9.55-26.35,0-7.54,1.18-14.73,3.54-21.58,2.35-6.84,5.66-12.85,9.9-18.04,4.24-5.18,9.43-9.31,15.56-12.38,6.13-3.06,12.96-4.6,20.51-4.6,11.79,0,20.92,3.54,27.41,10.61,6.48,7.07,9.73,15.92,9.73,26.53,0,7.55-1.18,14.74-3.54,21.58Z"/>
    <path class="cls-1" d="M1233.03,110.18c-4.84-5.35-10.91-9.6-18.22-12.77-7.31-3.16-16.04-4.74-26.17-4.74-13.21,0-24.53,2.98-33.95,8.94-9.43,5.96-17.57,13.68-24.4,23.16-3.3-9.48-9.14-17.2-17.51-23.16-8.37-5.96-19.51-8.94-33.42-8.94-6.37,0-12.26.85-17.68,2.55-5.43,1.7-10.32,4.01-14.68,6.93-4.37,2.92-8.31,6.26-11.85,10.03-3.54,3.77-6.6,7.6-9.2,11.49h-.71c.47-3.65,1-8.21,1.59-13.68.59-5.47,1-9.67,1.24-12.58h-54.12c-.47,5.84-1.24,12.4-2.3,19.7-1.06,7.3-2.07,13.26-3.01,17.87l-24.4,144.08h56.59l16.98-98.49c1.88-10.94,5.84-20.36,11.85-28.27,6.01-7.9,13.85-11.85,23.52-11.85,7.31,0,12.67,2.31,16.09,6.93,3.42,4.62,5.13,10.46,5.13,17.51,0,3.16-.35,6.57-1.06,10.21l-17.68,103.96h56.94l16.62-97.76c.94-5.11,2.35-10.15,4.24-15.14,1.88-4.98,4.36-9.36,7.43-13.13,3.06-3.77,6.6-6.81,10.61-9.12,4.01-2.31,8.49-3.47,13.44-3.47,8.25,0,14.15,2.37,17.68,7.11,3.54,4.74,5.31,10.64,5.31,17.69,0,4.62-.59,9.73-1.77,15.32l-16.62,98.49h56.59l19.45-111.98c.47-2.67.82-5.47,1.06-8.39.23-2.92.35-5.84.35-8.75,0-7.3-1.12-14.41-3.36-21.34-2.24-6.93-5.78-13.07-10.61-18.42Z"/>
    <path class="cls-1" d="M1535.92,110.18c-4.84-5.35-10.91-9.6-18.22-12.77-7.31-3.16-16.04-4.74-26.17-4.74-13.21,0-24.53,2.98-33.95,8.94-9.43,5.96-17.57,13.68-24.4,23.16-3.3-9.48-9.14-17.2-17.51-23.16-8.37-5.96-19.51-8.94-33.42-8.94-6.37,0-12.26.85-17.68,2.55-5.43,1.7-10.32,4.01-14.68,6.93-4.37,2.92-8.31,6.26-11.85,10.03-3.54,3.77-6.6,7.6-9.2,11.49h-.71c.47-3.65,1-8.21,1.59-13.68.59-5.47,1-9.67,1.24-12.58h-54.12c-.47,5.84-1.24,12.4-2.3,19.7-1.06,7.3-2.07,13.26-3.01,17.87l-24.4,144.08h56.59l16.98-98.49c1.88-10.94,5.84-20.36,11.85-28.27,6.01-7.9,13.85-11.85,23.52-11.85,7.31,0,12.67,2.31,16.09,6.93,3.42,4.62,5.13,10.46,5.13,17.51,0,3.16-.35,6.57-1.06,10.21l-17.68,103.96h56.94l16.62-97.76c.94-5.11,2.35-10.15,4.24-15.14,1.88-4.98,4.36-9.36,7.43-13.13,3.06-3.77,6.6-6.81,10.61-9.12,4.01-2.31,8.49-3.47,13.44-3.47,8.25,0,14.15,2.37,17.68,7.11,3.54,4.74,5.31,10.64,5.31,17.69,0,4.62-.59,9.73-1.77,15.32l-16.62,98.49h56.59l19.45-111.98c.47-2.67.82-5.47,1.06-8.39.23-2.92.35-5.84.35-8.75,0-7.3-1.12-14.41-3.36-21.34-2.24-6.93-5.78-13.07-10.61-18.42Z"/>
    <path class="cls-1" d="M1725.08,111.91c-6.84-6.23-15.03-11-24.58-14.3-9.55-3.29-20.11-4.94-31.66-4.94-15.56,0-29.83,2.77-42.8,8.3-12.97,5.53-24.11,13.12-33.42,22.77-9.32,9.65-16.62,21-21.93,34.07-5.31,13.06-7.96,27.13-7.96,42.19,0,12.71,2.24,24.01,6.72,33.89,4.48,9.88,10.61,18.18,18.39,24.89,7.78,6.71,16.92,11.77,27.41,15.18,10.49,3.41,21.87,5.12,34.13,5.12,16.03,0,31-2.65,44.92-7.94,13.91-5.3,26.53-13.94,37.85-25.95l-35.72-27.89c-5.43,5.65-11.56,10.12-18.39,13.42-6.84,3.3-14.74,4.94-23.7,4.94-4.95,0-9.73-.71-14.33-2.12-4.6-1.41-8.73-3.47-12.38-6.18-3.66-2.7-6.6-6-8.84-9.88-2.24-3.88-3.36-8.3-3.36-13.24,0-1.17.12-2.23.35-3.18h126.27c1.41-5.65,2.53-11.7,3.36-18.18.82-6.47,1.24-11.83,1.24-16.06,0-12-1.89-22.59-5.66-31.77-3.78-9.18-9.08-16.88-15.92-23.12ZM1696.43,162.92c0,1.18-.12,2.36-.35,3.53h-76.4c.94-3.76,2.59-7.65,4.95-11.65,2.35-4,5.42-7.65,9.2-10.94,3.77-3.29,8.19-6.06,13.26-8.3,5.07-2.23,10.79-3.35,17.15-3.35,10.37,0,18.33,2.59,23.88,7.77,5.54,5.18,8.31,11.65,8.31,19.42v3.53Z"/>
    <path class="cls-1" d="M1883.82,93.03c-2.24-.24-4.42-.36-6.54-.36-11.09,0-20.57,2.92-28.47,8.75-7.9,5.84-14.68,13.38-20.34,22.62h-.71c.23-1.7.53-3.83.88-6.38.35-2.55.71-5.11,1.06-7.66.35-2.55.65-4.98.89-7.3.23-2.31.35-4.07.35-5.29h-53.76c-.47,5.84-1.24,12.4-2.3,19.7-1.06,7.3-2.07,13.26-3.01,17.87l-25.11,144.08h56.59l15.92-93.38c.71-3.65,1.95-7.9,3.71-12.77,1.77-4.86,4.48-9.42,8.13-13.68,3.65-4.25,8.31-7.84,13.97-10.76,5.66-2.92,12.61-4.38,20.87-4.38,2.12,0,4.36.13,6.72.36,2.35.24,4.83.73,7.43,1.46l9.2-51.8c-1.41-.48-3.24-.85-5.48-1.09Z"/>
    <path class="cls-1" d="M1954.63,155.21c4.6-5.17,10.08-9.22,16.45-12.16,6.37-2.93,13.32-4.4,20.87-4.4,6.84,0,13.03,1.54,18.57,4.6,5.54,3.07,9.6,6.6,12.2,10.61l35.72-33.96c-6.6-9.2-15.74-16.03-27.41-20.51-11.67-4.48-24.23-6.72-37.67-6.72-16.27,0-31.07,3.01-44.39,9.02-13.32,6.01-24.7,14.03-34.13,24.05-9.43,10.03-16.75,21.58-21.93,34.66-5.19,13.09-7.78,26.83-7.78,41.21,0,11.79,2.06,22.4,6.19,31.83,4.12,9.43,9.9,17.57,17.33,24.4,7.43,6.84,16.45,12.09,27.06,15.74,10.61,3.65,22.28,5.48,35.02,5.48,15.09,0,28.41-2.44,39.97-7.31,11.55-4.87,21.93-11.46,31.12-19.78l-26.88-36.23c-4.24,4.48-9.32,8.26-15.21,11.32-5.9,3.07-13.09,4.6-21.58,4.6-6.6,0-12.32-1.06-17.15-3.17-4.84-2.11-8.79-4.87-11.85-8.28-3.07-3.4-5.37-7.4-6.9-11.98-1.54-4.58-2.3-9.33-2.3-14.27,0-7.28,1.29-14.27,3.89-20.97,2.59-6.69,6.19-12.62,10.79-17.79Z"/>
    <polygon class="cls-1" points="2053.79 279.07 2110.03 279.07 2141.51 92.67 2084.56 92.67 2053.79 279.07"/>
    <path class="cls-1" d="M2123.47,10.61c-9.43,0-17.39,3.24-23.88,9.73-6.49,6.49-9.73,14.56-9.73,24.23,0,8.26,2.88,15.03,8.67,20.34,5.77,5.31,13.14,7.96,22.11,7.96,4.71,0,9.07-.88,13.09-2.65,4.01-1.77,7.48-4.24,10.43-7.43,2.94-3.18,5.25-6.78,6.9-10.79,1.65-4.01.48-8.37.48-13.09,0-8.01-.83-14.73-6.49-20.16-5.66-5.42-12.85-8.13-21.58-8.13Z"/>
    <path class="cls-1" d="M2287.89,92.67h-39.61l3.18-13.44c.71-4.01,1.71-8.01,3.01-12.03,1.29-4.01,3.12-7.6,5.48-10.79,2.36-3.18,5.25-5.71,8.67-7.6,3.42-1.88,7.72-2.83,12.91-2.83s10.37.94,14.85,2.83l10.26-45.27c-3.54-1.18-7.67-2.06-12.38-2.65-4.72-.59-9.43-.88-14.15-.88-14.39,0-26.53,2.24-36.43,6.72-9.9,4.48-18.1,10.43-24.58,17.86-6.49,7.43-11.5,15.98-15.03,25.64-3.54,9.67-6.25,19.57-8.13,29.71l-3.54,12.73h-31.13l-7.43,47.75h32.19l-23.7,138.65h55.53l23.7-138.65h38.91l7.43-47.75Z"/>
    <path class="cls-1" d="M2440.08,92.67l-58.36,115.3h-.71l-17.68-115.3h-63.9l40.68,175.43-6.49,14.5c-4.24,7.54-8.67,13.38-13.26,17.51-4.6,4.12-11.02,6.19-19.28,6.19-5.9,0-11.43-1.06-16.62-3.18l-8.49,46.69c8.26,2.59,17.92,3.89,29,3.89,10.37,0,19.45-1.3,27.23-3.89,7.78-2.6,14.68-6.37,20.69-11.32,6.01-4.95,11.55-11.09,16.62-18.39,5.07-7.31,10.2-15.56,15.39-24.76l115.3-202.67h-60.13Z"/>
  </g>
</svg>