<?xml version="1.0" encoding="UTF-8"?>
<svg id="Layer_1" data-name="Layer 1" xmlns="http://www.w3.org/2000/svg" width="2531.98" height="353.69" viewBox="0 0 2531.98 353.69">
  <defs>
    <style>
      .cls-1 {
        fill: #0084ff;
      }
    </style>
  </defs>
  <g>
    <path class="cls-1" d="M408.68,122.84h-106.41c-3.96,0-7.5,2.46-8.88,6.16l-7.59,20.3-5.11,13.66c-2.32,6.2,2.26,12.8,8.88,12.8h141.44l19.98-52.92h-42.31Z"/>
    <path class="cls-1" d="M184.13,16.98h-66.34c-32.54,0-61.69,20.15-73.18,50.59L5.27,171.78c-19.9,52.71,19.05,109.06,75.4,109.06h310.29l19.98-52.92h-182.54c-13.61,0-23.04-13.59-18.27-26.34l9.85-26.34,9.85-26.34,9.85-26.34,9.85-26.34,2.94-7.85c4.16-11.12,14.78-18.48,26.64-18.48h191.96l19.98-52.92h-123.58"/>
  </g>
  <g>
    <path class="cls-1" d="M734.34,237.2c-4.91,5.38-10.59,10.59-17.02,15.61-6.44,5.03-13.81,9.47-22.11,13.33-8.31,3.86-17.43,6.9-27.37,9.12-9.95,2.22-20.88,3.33-32.81,3.33-17.54,0-33.33-2.58-47.37-7.72s-25.97-12.46-35.79-21.93c-9.82-9.47-17.43-20.88-22.81-34.21-5.38-13.33-8.07-28.07-8.07-44.21,0-21.28,3.74-41.28,11.23-60,7.48-18.71,17.84-35.03,31.05-48.95,13.21-13.91,28.83-24.85,46.84-32.81,18.01-7.95,37.55-11.93,58.6-11.93,19.65,0,37.31,3.45,52.98,10.35,15.67,6.9,27.48,15.73,35.44,26.49l-43.16,38.6c-3.98-6.08-9.89-11.46-17.72-16.14-7.84-4.68-17.6-7.02-29.3-7.02-12.4,0-23.68,2.63-33.86,7.89-10.18,5.26-18.95,12.28-26.32,21.05-7.37,8.77-13.1,18.83-17.19,30.18-4.1,11.35-6.14,23.1-6.14,35.26,0,8.42,1.34,16.44,4.04,24.04,2.69,7.6,6.61,14.21,11.75,19.83,5.14,5.61,11.52,10.06,19.12,13.33,7.6,3.28,16.32,4.91,26.14,4.91,10.99,0,21.4-2.34,31.23-7.02,9.82-4.68,18.48-11.34,25.97-20l32.63,38.6Z"/>
    <path class="cls-1" d="M835.78,276.85c-12.63,0-24.39-1.75-35.26-5.26-10.88-3.51-20.24-8.6-28.07-15.26-7.84-6.67-14.04-14.74-18.6-24.21-4.56-9.47-6.84-20.18-6.84-32.11,0-14.5,2.46-28.3,7.37-41.4,4.91-13.1,11.99-24.56,21.23-34.39,9.24-9.82,20.41-17.66,33.51-23.51,13.1-5.84,27.95-8.77,44.56-8.77,12.86,0,24.79,1.75,35.79,5.26,10.99,3.51,20.47,8.6,28.42,15.26,7.95,6.67,14.21,14.74,18.77,24.21,4.56,9.47,6.84,20.18,6.84,32.11,0,14.74-2.46,28.66-7.37,41.76-4.91,13.1-12.05,24.56-21.4,34.39-9.36,9.82-20.65,17.6-33.86,23.33-13.22,5.73-28.25,8.6-45.09,8.6ZM888.06,174.74c0-10.53-3.22-19.3-9.65-26.32-6.44-7.02-15.5-10.53-27.19-10.53-7.49,0-14.27,1.52-20.35,4.56-6.09,3.04-11.23,7.14-15.44,12.28-4.21,5.15-7.49,11.11-9.82,17.9-2.34,6.79-3.51,13.92-3.51,21.4,0,10.53,3.16,19.24,9.47,26.14,6.32,6.9,15.32,10.35,27.02,10.35,7.48,0,14.27-1.46,20.35-4.39,6.08-2.92,11.28-6.96,15.61-12.11,4.33-5.14,7.66-11.11,10-17.9,2.34-6.78,3.51-13.92,3.51-21.4Z"/>
    <path class="cls-1" d="M983.39,116.18c1.05-7.24,1.81-13.75,2.28-19.54h53.69c-.24,2.89-.65,7.06-1.23,12.48-.59,5.43-1.11,9.95-1.58,13.57h.7c2.57-3.86,5.61-7.66,9.12-11.4,3.51-3.74,7.42-7.06,11.75-9.95,4.33-2.9,9.18-5.18,14.56-6.88,5.38-1.69,11.23-2.53,17.54-2.53,13.8,0,24.85,2.96,33.16,8.87,8.3,5.91,14.09,13.57,17.37,22.98,6.78-9.41,14.85-17.06,24.21-22.98,9.35-5.91,20.58-8.87,33.68-8.87,10.06,0,18.71,1.57,25.97,4.7,7.25,3.14,13.27,7.36,18.07,12.67,4.79,5.31,8.3,11.4,10.53,18.27,2.22,6.88,3.33,13.93,3.33,21.17,0,2.89-.12,5.79-.35,8.68-.24,2.9-.59,5.67-1.05,8.32l-19.3,111.09h-56.14l16.49-97.71c1.17-5.55,1.75-10.61,1.75-15.2,0-6.99-1.75-12.85-5.26-17.55-3.51-4.7-9.36-7.06-17.54-7.06-4.91,0-9.36,1.15-13.33,3.44-3.98,2.3-7.49,5.31-10.53,9.05-3.04,3.74-5.5,8.09-7.37,13.03-1.87,4.95-3.28,9.95-4.21,15.02l-16.49,96.98h-56.49l17.54-103.13c.7-3.62,1.05-6.99,1.05-10.13,0-6.99-1.7-12.78-5.09-17.37-3.39-4.58-8.72-6.88-15.97-6.88-9.59,0-17.37,3.92-23.33,11.76-5.96,7.84-9.88,17.19-11.75,28.05l-16.84,97.71h-56.14l24.21-142.94c.93-4.58,1.93-10.49,2.98-17.73Z"/>
    <path class="cls-1" d="M1301.57,116.18c1.05-7.24,1.81-13.75,2.28-19.54h53.69c-.24,2.89-.65,7.06-1.23,12.48-.59,5.43-1.11,9.95-1.58,13.57h.7c2.57-3.86,5.61-7.66,9.12-11.4,3.51-3.74,7.42-7.06,11.75-9.95,4.33-2.9,9.18-5.18,14.56-6.88,5.38-1.69,11.23-2.53,17.54-2.53,13.8,0,24.85,2.96,33.16,8.87,8.3,5.91,14.09,13.57,17.37,22.98,6.78-9.41,14.85-17.06,24.21-22.98,9.35-5.91,20.58-8.87,33.68-8.87,10.06,0,18.71,1.57,25.97,4.7,7.25,3.14,13.27,7.36,18.07,12.67,4.79,5.31,8.3,11.4,10.53,18.27,2.22,6.88,3.33,13.93,3.33,21.17,0,2.89-.12,5.79-.35,8.68-.24,2.9-.59,5.67-1.05,8.32l-19.3,111.09h-56.14l16.49-97.71c1.17-5.55,1.75-10.61,1.75-15.2,0-6.99-1.75-12.85-5.26-17.55-3.51-4.7-9.36-7.06-17.54-7.06-4.91,0-9.36,1.15-13.33,3.44-3.98,2.3-7.49,5.31-10.53,9.05-3.04,3.74-5.5,8.09-7.37,13.03-1.87,4.95-3.28,9.95-4.21,15.02l-16.49,96.98h-56.49l17.54-103.13c.7-3.62,1.05-6.99,1.05-10.13,0-6.99-1.7-12.78-5.09-17.37-3.39-4.58-8.72-6.88-15.97-6.88-9.59,0-17.37,3.92-23.33,11.76-5.96,7.84-9.88,17.19-11.75,28.05l-16.84,97.71h-56.14l24.21-142.94c.93-4.58,1.93-10.49,2.98-17.73Z"/>
    <path class="cls-1" d="M1647.72,199.45c-.24.94-.35,1.99-.35,3.15,0,4.9,1.11,9.28,3.33,13.13,2.22,3.85,5.14,7.12,8.77,9.81,3.62,2.69,7.72,4.73,12.28,6.13,4.56,1.4,9.3,2.1,14.21,2.1,8.89,0,16.72-1.63,23.51-4.9,6.78-3.27,12.86-7.7,18.25-13.31l35.44,27.67c-11.23,11.91-23.75,20.49-37.54,25.74-13.81,5.25-28.66,7.88-44.56,7.88-12.17,0-23.45-1.7-33.86-5.08-10.41-3.38-19.47-8.41-27.19-15.06-7.72-6.65-13.81-14.88-18.25-24.69-4.45-9.81-6.67-21.01-6.67-33.62,0-14.94,2.63-28.89,7.9-41.85,5.26-12.96,12.51-24.22,21.76-33.8,9.24-9.57,20.29-17.1,33.16-22.59,12.86-5.48,27.02-8.23,42.46-8.23,11.46,0,21.93,1.64,31.41,4.9,9.47,3.27,17.6,8,24.39,14.18,6.78,6.19,12.04,13.83,15.79,22.94,3.74,9.11,5.61,19.61,5.61,31.52,0,4.2-.41,9.52-1.23,15.94-.82,6.42-1.93,12.43-3.33,18.04h-125.27ZM1727.37,165.13c.23-1.17.35-2.33.35-3.5v-3.5c0-7.7-2.75-14.12-8.25-19.26-5.5-5.13-13.39-7.7-23.69-7.7-6.32,0-11.99,1.11-17.02,3.33-5.03,2.22-9.42,4.96-13.16,8.23-3.74,3.27-6.79,6.89-9.12,10.86-2.34,3.97-3.98,7.83-4.91,11.56h75.79Z"/>
    <path class="cls-1" d="M1872,123.05c5.61-9.17,12.34-16.65,20.18-22.44,7.83-5.79,17.25-8.69,28.25-8.69,2.11,0,4.27.12,6.49.36,2.22.24,4.04.6,5.44,1.09l-9.12,51.39c-2.58-.72-5.03-1.2-7.37-1.45-2.34-.24-4.56-.36-6.67-.36-8.19,0-15.09,1.45-20.7,4.34s-10.24,6.46-13.86,10.68c-3.63,4.22-6.32,8.75-8.07,13.57-1.75,4.83-2.98,9.05-3.68,12.67l-15.79,92.64h-56.14l24.91-142.94c.93-4.58,1.93-10.49,2.98-17.73s1.81-13.75,2.28-19.54h53.33c0,1.21-.12,2.96-.35,5.25-.24,2.3-.53,4.7-.88,7.24-.35,2.53-.7,5.07-1.05,7.6-.35,2.53-.65,4.65-.88,6.33h.7Z"/>
    <path class="cls-1" d="M2062.32,152.64c-2.58-3.97-6.61-7.48-12.11-10.53-5.5-3.04-11.64-4.56-18.42-4.56-7.49,0-14.39,1.46-20.7,4.37-6.32,2.92-11.75,6.94-16.32,12.06-4.56,5.13-8.13,11.01-10.7,17.65-2.58,6.64-3.86,13.57-3.86,20.8,0,4.9.76,9.62,2.28,14.16,1.52,4.55,3.8,8.51,6.84,11.89,3.04,3.38,6.96,6.12,11.76,8.21,4.79,2.1,10.47,3.15,17.02,3.15,8.42,0,15.55-1.52,21.4-4.56,5.84-3.04,10.88-6.78,15.09-11.23l26.67,35.94c-9.12,8.25-19.42,14.79-30.88,19.62-11.46,4.83-24.68,7.25-39.65,7.25-12.63,0-24.21-1.81-34.74-5.44-10.53-3.62-19.47-8.83-26.84-15.61-7.37-6.78-13.1-14.85-17.19-24.21-4.1-9.35-6.14-19.88-6.14-31.58,0-14.27,2.57-27.9,7.72-40.88,5.14-12.98,12.4-24.44,21.76-34.39,9.35-9.94,20.64-17.9,33.86-23.86,13.21-5.96,27.9-8.95,44.04-8.95,13.33,0,25.79,2.23,37.37,6.67,11.58,4.45,20.64,11.23,27.19,20.35l-35.44,33.69Z"/>
    <polygon class="cls-1" points="2094.54 276.85 2125.06 91.93 2181.56 91.93 2150.33 276.85 2094.54 276.85"/>
    <path class="cls-1" d="M2193.49,38.6c0,4.68-.82,9.01-2.46,12.98-1.64,3.98-3.92,7.54-6.84,10.7-2.93,3.16-6.38,5.61-10.35,7.37-3.98,1.75-8.31,2.63-12.98,2.63-8.89,0-16.2-2.63-21.93-7.89-5.73-5.26-8.6-11.99-8.6-20.18,0-9.59,3.21-17.6,9.65-24.04,6.43-6.43,14.33-9.65,23.69-9.65,8.65,0,15.79,2.69,21.4,8.07,5.61,5.38,8.42,12.05,8.42,20Z"/>
    <path class="cls-1" d="M2335.8,48.42c-4.45-1.87-9.36-2.81-14.74-2.81s-9.42.94-12.81,2.81c-3.39,1.88-6.26,4.39-8.6,7.54-2.34,3.16-4.16,6.73-5.44,10.7-1.29,3.98-2.28,7.96-2.98,11.93l-3.16,13.33h39.3l-7.37,47.37h-38.6l-23.51,137.55h-55.09l23.51-137.55h-31.93l7.37-47.37h30.88l3.51-12.63c1.87-10.06,4.56-19.88,8.07-29.47,3.51-9.59,8.48-18.07,14.91-25.44,6.43-7.37,14.56-13.27,24.39-17.72,9.83-4.44,21.87-6.67,36.14-6.67,4.68,0,9.35.3,14.04.88,4.68.59,8.77,1.46,12.28,2.63l-10.18,44.91Z"/>
    <path class="cls-1" d="M2417.59,295.17c-5.15,9.22-10.24,17.5-15.26,24.83-5.03,7.33-10.53,13.48-16.49,18.44-5.96,4.97-12.81,8.75-20.53,11.35-7.72,2.6-16.73,3.9-27.02,3.9-11,0-20.58-1.3-28.77-3.9l8.42-46.82c5.15,2.13,10.64,3.19,16.49,3.19,8.19,0,14.56-2.07,19.12-6.21,4.56-4.14,8.95-9.99,13.16-17.56l8.42-14.54-40.35-175.93h61.41l17.54,115.63h.7l57.9-115.63h59.65l-114.39,203.24Z"/>
  </g>
</svg>